<svg xmlns="http://www.w3.org/2000/svg" xmlns:xlink="http://www.w3.org/1999/xlink" version="1.1" x="0px" y="0px" viewBox="0 0 100 125" style="enable-background:new 0 0 100 100;" xml:space="preserve"><g style="" display="none"><rect x="-123.066" y="-17.496" style="" width="1220.125" height="990.055" display="inline" fill="#CCCCFF" stroke="#000000" stroke-width="4" stroke-miterlimit="10"/></g><g><path d="M57.434,47.032l0.155-0.155l0.155,0.155l16.793-16.793c4.637-4.637,4.637-12.156,0-16.793   c-2.319-2.319-5.358-3.478-8.397-3.478s-6.078,1.159-8.397,3.478l-0.155,0.155l-0.155-0.155c-2.319-2.319-5.358-3.478-8.397-3.478   s-6.078,1.159-8.397,3.478c-4.637,4.637-4.637,12.156,0,16.793L57.434,47.032z M55.313,15.567l0.155,0.155l2.121,2.121l2.121-2.121   l0.156-0.156c1.676-1.676,3.905-2.599,6.275-2.599c2.37,0,4.599,0.923,6.275,2.599c1.676,1.676,2.599,3.905,2.599,6.275   c0,2.37-0.923,4.599-2.599,6.275L57.745,42.789l-0.155-0.155l-0.156,0.156L42.762,28.118c-3.46-3.46-3.46-9.09,0-12.55   c1.676-1.676,3.905-2.599,6.275-2.599C51.408,12.968,53.636,13.891,55.313,15.567z"/><path d="M20.824,90.032c0.723,0,1.451-0.23,2.068-0.7l11.916-9.126c0.877,0.131,1.758,0.144,2.713,0.144h26.431   c0.732,0,1.489,0,2.261-0.082c0.548-0.058,0.99-0.406,1.203-0.874c0.508-0.278,0.98-0.628,1.4-1.048l24.049-24.048   c1.449-1.449,2.224-3.461,2.127-5.521c-0.097-2.054-1.061-3.984-2.645-5.294c-2.87-2.376-7.285-2.072-10.049,0.692L71.526,54.949   c-1.007-0.604-2.147-0.933-3.309-0.933c-0.001,0-0.003,0-0.005,0c-0.216-0.009-5.294-0.212-6.504-0.212   c-0.854,0.007-1.73,0.024-2.622,0.042c-4.435,0.088-9.023,0.18-13.157-0.898c-0.946-0.248-1.854-0.512-2.738-0.769   c-4.424-1.285-8.601-2.499-13.944-0.651c-4.679,1.607-9.128,4.732-13.997,9.834l-9.142,8.295c-1.355,1.223-1.484,3.343-0.291,4.722   l12.438,14.48C18.921,89.631,19.868,90.032,20.824,90.032z M8.121,71.882l9.185-8.334c0.027-0.024,0.053-0.05,0.078-0.076   c4.539-4.764,8.619-7.658,12.84-9.108c4.445-1.537,7.836-0.551,12.13,0.696c0.909,0.264,1.841,0.535,2.816,0.791   c4.539,1.182,9.551,1.082,13.976,0.995c0.88-0.018,1.745-0.035,2.589-0.042c1.134-0.021,6.3,0.207,6.415,0.21   c0.963,0,1.872,0.378,2.559,1.065c0.687,0.687,1.065,1.596,1.065,2.559c0,2.004-1.626,3.635-3.624,3.635H44.738   c-0.696,0-1.301,0.479-1.461,1.157c-0.053,0.225-0.113,0.529-0.113,0.932c0,0.829,0.671,1.479,1.5,1.479   c0.47,0,0.89-0.223,1.165-0.568h22.32c3.653,0,6.624-2.976,6.624-6.635c0-1.302-0.378-2.547-1.079-3.615L84.42,46.298   c1.681-1.68,4.323-1.903,6.015-0.502c0.948,0.784,1.502,1.894,1.56,3.124c0.057,1.217-0.399,2.405-1.252,3.258L66.694,76.226   c-0.713,0.713-1.75,0.991-2.727,0.853v0.271c-0.006,0-0.011,0-0.017,0H37.52c-1.027,0-1.944-0.015-2.755-0.203   c-0.437-0.101-0.896-0.001-1.251,0.271l-12.445,9.531c-0.169,0.129-0.406,0.107-0.54-0.048L8.089,72.419   C7.95,72.259,7.963,72.024,8.121,71.882z"/></g><text x="0" y="115" fill="#000000" font-size="5px" font-weight="bold" font-family="'Helvetica Neue', Helvetica, Arial-Unicode, Arial, Sans-serif">Created by Oksana Latysheva</text><text x="0" y="120" fill="#000000" font-size="5px" font-weight="bold" font-family="'Helvetica Neue', Helvetica, Arial-Unicode, Arial, Sans-serif">from the Noun Project</text></svg>