<svg xmlns="http://www.w3.org/2000/svg" viewBox="0 0 48 60" x="0px" y="0px"><title>Artboard 1</title><g data-name="Your Icons"><path d="M9.29,32.29a1,1,0,0,0,0,1.42l2.61,2.61A8.89,8.89,0,0,0,23,37.52V41a1,1,0,0,0,2,0V37.52a8.89,8.89,0,0,0,11.1-1.2l2.61-2.61a1,1,0,0,0,0-1.42l-2-2a11.16,11.16,0,0,0,3.33-8V17.5a1,1,0,0,0-1-1H34.23a10.89,10.89,0,0,0-2.83.37,11.52,11.52,0,0,0-3.19-6.08l-3.5-3.5a1,1,0,0,0-1.42,0l-3.5,3.5a11.52,11.52,0,0,0-3.19,6.08,10.89,10.89,0,0,0-2.83-.37H9a1,1,0,0,0-1,1v4.77a11.16,11.16,0,0,0,3.33,8Zm.71-10V18.5h3.77a9.19,9.19,0,0,1,3.3.62A1,1,0,0,0,18,19a1,1,0,0,0,.46-.77,9.53,9.53,0,0,1,2.78-6.05L24,9.41l2.79,2.8a9.53,9.53,0,0,1,2.78,6.05A1,1,0,0,0,30,19a1,1,0,0,0,.9.09,9.19,9.19,0,0,1,3.3-.62H38v3.77a9.17,9.17,0,0,1-3.43,7.17,1,1,0,0,0,0,1.51L36.59,33l-1.91,1.9a6.88,6.88,0,0,1-9.45.29l6.48-6.48a1,1,0,0,0-1.42-1.42L25,32.59V27.85a1.53,1.53,0,0,0,.21-.14l4-4a1,1,0,0,0-1.42-1.42L25,25.09V17a1,1,0,0,0-2,0v8.09l-2.79-2.8a1,1,0,0,0-1.42,1.42l4,4a1.53,1.53,0,0,0,.21.14v4.74l-5.29-5.3a1,1,0,0,0-1.42,1.42l6.48,6.48a6.88,6.88,0,0,1-9.45-.29L11.42,33l1.95-1.95.11-.1a1,1,0,0,0-.05-1.51A9.17,9.17,0,0,1,10,22.27Z"/></g><text x="0" y="63" fill="#000000" font-size="5px" font-weight="bold" font-family="'Helvetica Neue', Helvetica, Arial-Unicode, Arial, Sans-serif">Created by tezar tantular</text><text x="0" y="68" fill="#000000" font-size="5px" font-weight="bold" font-family="'Helvetica Neue', Helvetica, Arial-Unicode, Arial, Sans-serif">from the Noun Project</text></svg>