<svg xmlns="http://www.w3.org/2000/svg" data-name="Layer 1" viewBox="0 0 90 46.675000000000004" x="0px" y="0px"><title>22</title><path d="M95,59.85v0c-.09-.75-.55-4.37-1.6-5.76a18.72,18.72,0,0,0-1.68-1.79,29.81,29.81,0,0,1-4.1-4.74l0-.07c-1-2.15-5.13-8-9.43-10.29L77,36.54A41.79,41.79,0,0,0,71.7,34l-1.35-.56c-2.82-1.18-3.55-1.11-5.16-1-.64.05-1.43.12-2.65.12a8.46,8.46,0,0,1-3.74-.68,5.88,5.88,0,0,0-2.93-.54,13.94,13.94,0,0,0-3.45.79,5.59,5.59,0,0,1-2.44.48c-2.47-.74-7.66,1.57-7.71,1.59A45.85,45.85,0,0,0,36.66,38l-.92.67,0,0-2.44.23A.58.58,0,0,0,33,39l-.72-.26a24.06,24.06,0,0,1,3.35-1.06.58.58,0,0,0,.08-1.1,8.48,8.48,0,0,0-6.33.65c1.18-.62,2.47-1.26,3.16-1.59a.58.58,0,0,0-.33-1.09s-4.51.63-7.73,1.39l-3.26.75c-2.54.57-5.41,1.22-7.66,1.86a17.58,17.58,0,0,0-6,3.3c-.47.26-2.17,1.25-2.52,2.29s.47,2.05.82,2.5A5.82,5.82,0,0,0,8.5,48.54a12.82,12.82,0,0,1,2,1.08C12.44,50.75,15,52.29,18,52.4l1.65.07c-.08.73-.44,2.69-2.07,3.09a2.44,2.44,0,0,0-1.67,2.32.68.68,0,0,0,.5.75.64.64,0,0,0,.73-.39,2.24,2.24,0,0,1,.84-.36,2.31,2.31,0,0,0,.17,1.91.59.59,0,0,0,.49.29h.08a.55.55,0,0,0,.46-.41s.17-.42,1.09-.88a4.48,4.48,0,0,0,2.39-2.22,15.48,15.48,0,0,0,1.11-3.49,12.82,12.82,0,0,1,3.66,2.08c1.39,1.39,2.61,4.31,2.35,4.86s-2.21,1.35-3.25,1.22C24.88,61,24.2,64,24.08,64.61a.58.58,0,0,0,1,.47,5.59,5.59,0,0,1,1.27-1.16,4,4,0,0,0-.41.74l-.31.77a.58.58,0,0,0,.76.75c.35-.15,1.15-.47,1.75-.69A2.26,2.26,0,0,0,29.68,67a.58.58,0,0,0,.75-.66c-.1-.52,0-1.13.11-1.2,1-.4,3.28-2.58,3.28-4.68a10.14,10.14,0,0,0-.72-2.88c2.72.72,13.38,3.2,19.74,0q.55-.28,1-.56a8.39,8.39,0,0,0,1.48,4.4,26,26,0,0,1,1.76,2.39c-.25.32-.67.73-1.08.67a2,2,0,0,0-1.88,1.14,2.16,2.16,0,0,0-.2,2.23.58.58,0,0,0,.45.23.6.6,0,0,0,.46-.21,2.27,2.27,0,0,1,.93-.71,1.41,1.41,0,0,0,0,.19,1.33,1.33,0,0,0,.41,1.18.58.58,0,0,0,.75.06,22.33,22.33,0,0,1,2-1.31v.54a.58.58,0,0,0,.86.5,4.63,4.63,0,0,0,2-2.52,3.06,3.06,0,0,0-.45-2.42,13.48,13.48,0,0,1-1.64-4.5c3,.78,13.57,3.35,21.71,3.35,9.62,0,12.7-1.1,12.83-1.15A1.15,1.15,0,0,0,95,59.85ZM33.69,40.43l-.8.38a9.46,9.46,0,0,1-2.19-.75l-.46-.2a5.25,5.25,0,0,1,.63-.44Zm-4.43.26,1,.41.49.22a8.88,8.88,0,0,1-2.36.09ZM11.14,48.63a13.25,13.25,0,0,0-2.27-1.19C7.2,46.89,6,45,6.16,44.49a5.41,5.41,0,0,1,2-1.67l.11-.08a16.73,16.73,0,0,1,5.61-3.1C16.12,39,19,38.37,21.5,37.8L24.78,37c1.25-.3,2.7-.57,4-.8a19.14,19.14,0,0,0-2.51,1.49c-.9.75-2.27,1.82-2.29,1.83a.58.58,0,0,0,.24,1c1.74.34,4.18-1.43,4.42-1.62a9.49,9.49,0,0,1,3.66-1.48,9.88,9.88,0,0,0-3,1.65,52.27,52.27,0,0,1-4.47,3.43,1.06,1.06,0,0,0-.71.76c-.12.67.55,1.15.77,1.31,1.09.78,4,.6,5.69.24s3-.6,4-.76l-.28.15a.59.59,0,0,0-.25.11l-.1.08-.74.41c-1.55.86-2.66,1.49-4,1.49a29.66,29.66,0,0,1-4.36-.3.59.59,0,0,0-.43.1.58.58,0,0,0-.23.38l-.15,1.07a.58.58,0,0,0,.45.64,26.34,26.34,0,0,1,5.73,1.92A11,11,0,0,0,28.63,50a29.05,29.05,0,0,1-4.5-.45.57.57,0,0,0-.61.29l-.89,1.65c-.58-.06-1.86-.16-4.57-.26S13,49.76,11.14,48.63ZM28.39,37.76,28,38a10,10,0,0,1-1.12.71l.14-.12A11.07,11.07,0,0,1,28.39,37.76ZM37.61,44l1.07.83a14.26,14.26,0,0,1-1.39-.46.58.58,0,0,0-.48,0l-.1.06a.58.58,0,0,0-.2.82,3.13,3.13,0,0,0,.51.58c-.32-.18-.66-.39-1-.62l-.06,0-.42-.28C36.16,44.61,36.84,44.29,37.61,44Zm-2.53,2.53-1.22-.7.44-.24C34.56,45.87,34.83,46.19,35.08,46.52Zm-2.06,1-1.32-.59.7-.33Zm-5.8,4.25c-.28-.23-.57-.48-.84-.73l.79.07ZM21.69,56a3.38,3.38,0,0,1-1.91,1.77,5.39,5.39,0,0,0-.64.38,2.05,2.05,0,0,1,.51-.66.58.58,0,0,0-.46-1,10.44,10.44,0,0,0-1.58.33.84.84,0,0,1,.26-.12c2.4-.6,2.86-3.25,2.95-4.15,1.12.07,1.66.12,1.88.15A15.37,15.37,0,0,1,21.69,56Zm38.68,8a1.93,1.93,0,0,1,.31,1.53,2.56,2.56,0,0,1-.63,1.09v-.16a.58.58,0,0,0-.58-.58,5.39,5.39,0,0,0-2.07,1,5.6,5.6,0,0,1,.9-.63l.06,0a.58.58,0,0,0-.54-1l-.07,0a7.68,7.68,0,0,1-2,.81,1.5,1.5,0,0,0-.62.15l.1-.14c.2-.27.43-.42.6-.4,1.45.21,2.39-1.45,2.43-1.52a.58.58,0,0,0,0-.57,23.18,23.18,0,0,0-2-2.84C55,59.17,55,56.38,55,56.36a.56.56,0,0,0,0-.07c5-3.51,3.87-7.64,3.82-7.83a.58.58,0,0,0-1.11.31c0,.18,1.13,4.52-5.38,7.77-6.77,3.39-19.4-.23-19.53-.27a.57.57,0,0,0-.19,0C31.9,54.53,31.14,53,31,52.65a.58.58,0,0,0-1,.5c.75,1.55,2.7,5.87,2.7,7.27S30.74,63.78,30.11,64a1.44,1.44,0,0,0-.84,1.17.94.94,0,0,1-.07-.41.58.58,0,0,0-.71-.63c-.27.07-.73.23-1.18.41a7.72,7.72,0,0,1,.81-1,.58.58,0,0,0-.41-1h-.92a1.94,1.94,0,0,0-.88.25c.18-.31.37-.5.5-.48,1.44.18,3.84-.68,4.42-1.85s-1.14-4.77-2.56-6.19a15.07,15.07,0,0,0-4.5-2.51l.56-1,.37.06a11.35,11.35,0,0,0,2.84,2.62.58.58,0,0,0,.89-.52l-.11-1.77h.31a21.42,21.42,0,0,1,5.19,1,.58.58,0,0,0,.54-1,24.67,24.67,0,0,0-8.87-3.94,33.29,33.29,0,0,0,3.76.21,5.35,5.35,0,0,0,.79-.06.56.56,0,0,0,.13.09l4.22,1.88a.58.58,0,0,0,.71-.85l-.76-1.13a15.57,15.57,0,0,1,2.33,1.52.62.62,0,0,0,.6.35.58.58,0,0,0,.48-.38.88.88,0,0,0-.11-.54h0l-.06-.09a9.62,9.62,0,0,0-.7-1.17,4.7,4.7,0,0,0,1.47.52,1.48,1.48,0,0,1,1.06.63.58.58,0,0,0,1-.49,5.32,5.32,0,0,0-1-1.64h0a3.58,3.58,0,0,1,1.17.19.58.58,0,0,0,.57-1l-2.63-2a.56.56,0,0,0,0-.12.57.57,0,0,0-.53-.5c-.09,0-2.14-.15-7.69,1.09-1.81.4-4.17.38-4.77-.05l-.17-.13h0c.06,0,.91-.62,1.94-1.39,1.17,1,5.73-.12,5.93-.21a.63.63,0,0,0,.21-.16l1.93-.91a.58.58,0,0,0,0-1l.27,0c3.64.58,15.43,2.51,19.59,3.65,1.68.46,3,.82,4.24,1.13a149.77,149.77,0,0,1,16.89,5.45,58.49,58.49,0,0,1,15.36,8.42c-6.49-1.83-15.6-3.28-20.43-2.78a26.92,26.92,0,0,1-5.66.09,9.4,9.4,0,0,0-3.63.23,16.41,16.41,0,0,0-2.58,1.19L59,57.5a.58.58,0,0,0-.42.25.89.89,0,0,0-.07.13.57.57,0,0,0,0,.31A15.05,15.05,0,0,0,60.37,63.95ZM81.42,61c-7.47,0-17.07-2.21-20.73-3.13a11.05,11.05,0,0,1,1.69-.76,8.27,8.27,0,0,1,3.25-.2,28.22,28.22,0,0,0,5.87-.09c5.17-.54,15.4,1.23,21.77,3.27C92,60.42,88.58,61,81.42,61Zm.37-10a9.17,9.17,0,0,1,3.31-1.58.58.58,0,0,0-.3-1.11c-.34.09-3.06.87-4.1,2.2C79.49,50,78.21,49.48,76.86,49L74.1,48l2.3-4.33a.58.58,0,0,0-1-.54L73,47.59c-3.83-1.36-6.3-2.17-8.39-2.79l2.74-5.62a.58.58,0,1,0-1-.5L63.5,44.48c-1.21-.34-2.35-.64-3.63-1s-2.56-.67-4.23-1.13l-.82-.21,1.68-5a.58.58,0,0,0-1.09-.36L53.69,41.9c-1.73-.39-3.93-.82-6.23-1.24a34.93,34.93,0,0,0-.62-4,.58.58,0,1,0-1.13.24s.47,2.22.58,3.54c-3.36-.6-6.75-1.17-9-1.53h0a48.88,48.88,0,0,1,5.4-3.65c1.56-.71,5.3-2,6.91-1.53a5.84,5.84,0,0,0,3.12-.49,13.09,13.09,0,0,1,3.17-.74,4.87,4.87,0,0,1,2.44.46,9.65,9.65,0,0,0,4.16.76c1.27,0,2.09-.07,2.75-.13,1.49-.13,2.05-.17,4.62.89l1.36.56a40.93,40.93,0,0,1,5.16,2.51l1.15.61c4.39,2.32,8.26,8.34,9,9.83a.57.57,0,0,0,.09.14,30.74,30.74,0,0,0,4.26,4.93,18.26,18.26,0,0,1,1.57,1.67,10.57,10.57,0,0,1,1.16,3.71A58.13,58.13,0,0,0,81.79,51.05Z" transform="translate(-5 -31.33)"/><path d="M13.6,42.2A1.8,1.8,0,1,0,15.4,44,1.81,1.81,0,0,0,13.6,42.2Zm0,2.46a.65.65,0,1,1,.65-.65A.65.65,0,0,1,13.6,44.65Z" transform="translate(-5 -31.33)"/><text x="0" y="52.34" fill="#000000" font-size="5px" font-weight="bold" font-family="'Helvetica Neue', Helvetica, Arial-Unicode, Arial, Sans-serif">Created by parkjisun</text><text x="0" y="57.34" fill="#000000" font-size="5px" font-weight="bold" font-family="'Helvetica Neue', Helvetica, Arial-Unicode, Arial, Sans-serif">from the Noun Project</text></svg>