<svg xmlns="http://www.w3.org/2000/svg" xmlns:xlink="http://www.w3.org/1999/xlink" version="1.1" x="0px" y="0px" viewBox="0 0 100 125" style="enable-background:new 0 0 100 100;" xml:space="preserve"><path d="M23.285,33.443c-0.408-0.236-0.954-0.056-1.218,0.402c-0.264,0.458-0.147,1.02,0.261,1.256  c0.408,0.236,0.954,0.056,1.218-0.402C23.81,34.241,23.693,33.679,23.285,33.443z"/><path d="M38.802,32.222c0.286-0.375,0.178-0.939-0.243-1.26c-0.42-0.321-0.993-0.277-1.279,0.098s-0.178,0.939,0.243,1.26  C37.944,32.641,38.516,32.597,38.802,32.222z"/><path d="M30.926,39.492c0.041,0,0.083-0.004,0.123-0.014l2.425-0.572c0.073-0.018,0.143-0.05,0.202-0.095l2.562-1.944  c0.198-0.151,0.268-0.419,0.166-0.646c-0.101-0.229-0.348-0.354-0.591-0.311L31.54,36.72l-4.231,1.144  c-0.244,0.065-0.409,0.293-0.396,0.546c0.013,0.252,0.2,0.462,0.45,0.503l3.477,0.572C30.868,39.49,30.897,39.492,30.926,39.492z   M31.781,37.767l1.987-0.376l-0.651,0.494l-2.209,0.521l-0.927-0.152L31.781,37.767z"/><path d="M89.454,40.546c-0.598-0.248-1.052-0.438-1.413-0.529c-0.912-0.383-1.829-0.84-2.782-1.314  c-2.424-1.207-4.93-2.454-7.724-2.684c-4.397-0.733-8.856-0.733-13.277,0.004l-1.47,0.274c-5.391,1.002-11.457,2.14-16.442,3.909  l-0.367-0.397c0.055-0.145,0.107-0.29,0.157-0.437h1.384c0.173,0,0.334-0.082,0.436-0.222l0.662-0.916h0.915  c0.249,0,0.466-0.171,0.523-0.413l0.226-0.95l1.569-1.052l2.605-1.545l0.618-0.045c0.162-0.012,0.311-0.097,0.403-0.23l0.743-1.075  c0.106-0.153,0.125-0.352,0.05-0.522c-0.076-0.171-0.234-0.291-0.42-0.315l-4.175-0.568c-0.9-0.128-1.796,0.039-2.596,0.468  l-1.996,1.068l0.022-0.399c0.014-0.238-0.053-0.474-0.188-0.67l-0.409-0.594l1.789-2.134c0.055-0.066,0.094-0.144,0.112-0.228  l0.641-2.845c0.015-0.067,0.018-0.136,0.006-0.204l-0.664-4.109c-0.042-0.26-0.267-0.451-0.53-0.451h-1.418  c-0.195,0-0.376,0.105-0.471,0.277c-0.087,0.157-0.079,0.344,0.002,0.502l-0.782,0.752c-0.076,0.073-0.129,0.168-0.151,0.271  l-0.325,1.46l-0.734,0.579c-0.094,0.073-0.16,0.176-0.188,0.292l-0.24,0.961l-0.655,0.612l-1.002-0.501l-2.188-4.265  c-0.031-0.061-0.073-0.114-0.124-0.159l-2.928-2.562c-0.087-0.076-0.195-0.122-0.31-0.132l-1.281-0.106  c-0.2-0.013-0.367,0.067-0.478,0.217c-0.11,0.15-0.136,0.347-0.066,0.521l0.168,0.418l-1.258,0.977  c-0.212,0.165-0.27,0.462-0.135,0.695l0.559,0.961l-0.533,0.755c-0.026,0.037-0.047,0.078-0.063,0.12l-0.23,0.609  c-2.013-0.148-4.018,0.019-5.973,0.529c-2.637,0.686-5.071,1.955-7.15,3.692c-0.484-0.98-1.269-1.792-2.263-2.278l-0.223-0.108  c-0.095-0.047-0.202-0.062-0.306-0.05l-2.15,0.282c-0.144,0.02-0.273,0.096-0.36,0.212s-0.123,0.263-0.101,0.406l0.123,0.765  l-0.129,2.348c-0.009,0.168,0.062,0.331,0.189,0.439l0.809,0.685l0.96,1.263c-0.16,0.281-0.307,0.569-0.443,0.861l-4.024-2.931  c-0.162-0.118-0.374-0.136-0.553-0.048l-1.12,0.549c-0.136,0.066-0.237,0.187-0.279,0.331c-0.043,0.145-0.022,0.3,0.056,0.429  l0.352,0.584l-0.193,1.672l0.105,1.77c0.01,0.15,0.081,0.29,0.198,0.385l1.751,1.425l1.038,1.262l-2.206,0.619  c-0.255,0.071-0.42,0.318-0.389,0.581l0.114,0.961c0.029,0.247,0.225,0.441,0.473,0.471l0.376,0.044l1.278,1.28l1.061,0.915  c0.102,0.087,0.227,0.13,0.352,0.13c0.145,0,0.289-0.058,0.395-0.172l0.727-0.786l1.369-0.263c1.674,1.933,3.901,3.372,6.361,4.08  l0.22,2.209l-3.396,2.046c-2.517,1.517-4.324,3.913-5.088,6.748l-1.411,5.235l-3.446,4.088c-0.285,0.339-0.334,0.818-0.122,1.208  c0.212,0.389,0.644,0.605,1.08,0.552l1.428-0.183l-0.183,1.07c-0.078,0.454,0.143,0.907,0.548,1.126  c0.406,0.22,0.904,0.158,1.243-0.157l1.546-1.433l1.418,1.407c0.205,0.204,0.479,0.312,0.758,0.312c0.12,0,0.242-0.021,0.359-0.062  c0.39-0.139,0.665-0.487,0.71-0.898l0.296-2.748l0.579,0.14c0.386,0.095,0.797-0.036,1.061-0.336c0.263-0.3,0.338-0.722,0.195-1.095  l-1.069-2.779l2.167-5.431l2.413-1.357c1.111,1.246,1.611,2.077,2.094,2.882c0.647,1.078,1.258,2.098,3.113,3.745  c1.64,1.312,3.561,2.299,5.532,2.858l-1.312,2.062c-0.558,0.877-0.945,1.838-1.149,2.859l-0.519,2.585l-2.794,3.722  c-0.246,0.328-0.284,0.768-0.098,1.134c0.184,0.36,0.554,0.587,0.958,0.587c0.005,0,0.011,0,0.017,0l3.383-0.051l0.969,1.162  c0.206,0.247,0.51,0.387,0.826,0.387c0.056,0,0.112-0.004,0.168-0.014c0.374-0.059,0.689-0.311,0.83-0.662l0.664-1.657l1.766-0.034  c0.336-0.007,0.648-0.169,0.847-0.439s0.259-0.618,0.164-0.94L39.05,73.57c-0.243-0.822-0.085-1.725,0.424-2.415l2.953-4.007  c3.403-0.161,7.166-1.403,9.468-2.17c0.12-0.04,0.233-0.101,0.332-0.18c0.383-0.307,0.871-0.661,1.358-1.017  c0.429-0.312,0.842-0.617,1.208-0.9l2.05,0.21l9.084,4.931c0.161,0.087,0.337,0.13,0.513,0.13c0.241,0,0.48-0.081,0.676-0.239  c0.338-0.272,0.479-0.723,0.355-1.14l-0.126-0.428l0.931,0.155c0.446,0.071,0.887-0.137,1.11-0.527s0.18-0.88-0.11-1.225  l-0.416-0.496l1.594-0.438c0.471-0.13,0.796-0.561,0.79-1.05c-0.006-0.488-0.34-0.912-0.814-1.03l-4.888-1.223  c-0.032-0.008-0.065-0.015-0.099-0.02l-2.841-0.435l-2.839-1.298c4.879-3.849,9.246-7.06,13.998-9.886  c1.23-0.116,2.465-0.077,3.769-0.036c1.878,0.059,3.821,0.122,5.797-0.317c0.206-0.046,0.395-0.151,0.541-0.304  c0.792-0.822,1.642-1.62,2.464-2.393c1.289-1.211,2.507-2.354,3.536-3.595c0.059-0.069,0.107-0.146,0.146-0.226  c0.001-0.001,0.001-0.001,0.001-0.002c0.001-0.001,0.001-0.001,0.001-0.001c0-0.001,0-0.001,0-0.001l0.001-0.001  c0-0.001,0-0.001,0-0.001c0-0.001,0.001-0.001,0.001-0.001c0.025-0.055,0.046-0.111,0.062-0.169c0,0,0-0.001,0.001-0.002  c0-0.001,0-0.001,0-0.002s0.001-0.001,0.001-0.001c0-0.001,0-0.001,0-0.002s0-0.001,0.001-0.002c0.045-0.167,0.05-0.345,0.011-0.52  C90.015,40.96,89.775,40.678,89.454,40.546z M51.278,34.911l-1.77,1.185c-0.113,0.075-0.193,0.19-0.225,0.322l-0.176,0.742h-0.765  c-0.173,0-0.334,0.082-0.436,0.222l-0.662,0.916h-0.78c0.093-0.347,0.173-0.698,0.241-1.051l3.422-2.137  c0.579-0.361,1.238-0.58,1.913-0.652L51.278,34.911z M49.588,32.932c0.598-0.32,1.264-0.441,1.943-0.351l3.307,0.451l-0.099,0.143  l-2.623,0.189c-0.902,0.064-1.786,0.352-2.557,0.832l-2.655,1.658c0.018-0.191,0.045-0.38,0.056-0.572l0.054-0.973L49.588,32.932z   M47.98,26.05l-0.59,2.616l-1.514,1.806l-0.708-1.028l0.925-0.787c0.033-0.028,0.063-0.061,0.089-0.097  c0.794-1.11,1.209-2.419,1.201-3.784l-0.013-2.204c0-0.026-0.002-0.052-0.006-0.078L47.98,26.05z M44.406,27.192  c0.075-0.07,0.129-0.162,0.154-0.263l0.234-0.937l0.74-0.584c0.097-0.076,0.165-0.185,0.191-0.306l0.331-1.488l0.243-0.234  l0.009,1.402c0.006,1.116-0.327,2.187-0.965,3.101l-0.789,0.671l-0.474-0.688c-0.052-0.075-0.113-0.143-0.182-0.202L44.406,27.192z   M36.083,20.565l2.717,2.378l1.523,2.967c-1.198-0.465-2.45-0.768-3.739-0.899l-0.29-0.029c0.439-1.004,0.471-2.156,0.049-3.208  l-0.495-1.229L36.083,20.565z M34.961,22.947l-0.496-0.854l0.645-0.5l0.234,0.582c0.358,0.891,0.274,1.879-0.198,2.69l-1-0.102  l0.096-0.255l0.693-0.98C35.057,23.356,35.066,23.129,34.961,22.947z M17.097,27.545l0.077,0.038  c0.868,0.424,1.531,1.17,1.889,2.061c-0.207,0.196-0.415,0.389-0.614,0.594l-0.189,0.197c-0.037,0.039-0.07,0.081-0.107,0.12  l-0.216-1.667c-0.027-0.208-0.173-0.382-0.373-0.444l-1.89-0.587l-0.02-0.123L17.097,27.545z M16.317,30.897  c-0.023-0.031-0.051-0.06-0.08-0.085l-0.649-0.55l0.07-1.284l1.256,0.391l0.301,2.318c-0.049,0.066-0.101,0.129-0.148,0.196  L16.317,30.897z M11.618,31.847l3.976,2.896c-0.14,0.392-0.264,0.79-0.363,1.197l-0.86-0.322c-0.724-0.271-1.342-0.783-1.741-1.443  l-1.313-2.18L11.618,31.847z M13.103,37.159c-0.022-0.027-0.048-0.053-0.076-0.075l-1.61-1.311l-0.093-1.437l0.025-0.206  l0.362,0.601c0.523,0.866,1.335,1.54,2.284,1.896l1.024,0.383c-0.083,0.558-0.09,1.121-0.038,1.677l-0.503,0.141L13.103,37.159z   M15.155,39.754c0.091,0.362,0.218,0.714,0.365,1.058l-1.56,0.186l-2.078-0.241l-0.01-0.082L15.155,39.754z M15.147,42.165  c-0.112,0.022-0.216,0.079-0.293,0.163l-0.494,0.534l-0.637-0.549l-0.293-0.294l0.469,0.054c0.021,0.002,0.041,0.003,0.062,0.003  c0.021,0,0.042-0.001,0.063-0.003l2.032-0.242c0.03,0.047,0.064,0.093,0.095,0.139L15.147,42.165z M86.573,42.61l-11.036-1.593  c-0.074-0.011-0.149-0.006-0.223,0.015l-5.895,1.659l-2.685,0.977l0.367,1.01l2.646-0.964l5.747-1.615L85.6,43.557  c-0.246,0.233-0.488,0.464-0.741,0.702c-0.763,0.717-1.55,1.455-2.308,2.229c-1.61,0.31-3.239,0.257-4.954,0.203  c-1.396-0.044-2.841-0.091-4.301,0.072c-0.15,0.017-0.297,0.065-0.428,0.143c-5.212,3.079-9.933,6.589-15.301,10.853l-1.975-0.903  l-0.895,1.955l7.146,3.267c0.091,0.042,0.187,0.07,0.285,0.085l2.939,0.45l1.135,0.283c-0.124,0.122-0.218,0.274-0.271,0.445  c-0.061,0.195-0.064,0.4-0.014,0.592c-0.343-0.034-0.667,0.104-0.894,0.358c-0.162,0.183-0.255,0.413-0.269,0.649l-7.076-3.841  c-0.125-0.067-0.262-0.109-0.403-0.124l-6.458-0.662L50.6,62.452l1.02,0.105c-0.206,0.152-0.404,0.301-0.584,0.441  c-2.749,0.917-8.17,2.688-11.419,1.787l-0.57,2.074c0.258,0.071,0.536,0.108,0.809,0.154l-2.113,2.866  c-0.906,1.229-1.188,2.837-0.756,4.3l0.57,1.931l-1.069,0.021c-0.432,0.009-0.817,0.274-0.978,0.676l-0.259,0.646l-0.144-0.173  c-0.205-0.245-0.508-0.387-0.826-0.387c-0.005,0-0.011,0-0.017,0l-1.704,0.025l1.624-2.163c0.096-0.129,0.162-0.276,0.193-0.435  l0.566-2.823c0.153-0.76,0.44-1.475,0.856-2.127l2.133-3.353c0.193-0.305,0.222-0.686,0.074-1.016  c-0.146-0.329-0.449-0.563-0.806-0.622c-2.144-0.355-4.307-1.337-6.05-2.729c-1.566-1.393-2.047-2.193-2.655-3.208  c-0.466-0.779-0.992-1.646-2.025-2.852l0.223-0.125c0.077-0.044,0.148-0.097,0.213-0.158l1.221-1.159l-1.48-1.559l-1.124,1.066  l-4.764,2.68c-0.214,0.121-0.38,0.311-0.472,0.539l-2.463,6.175c-0.1,0.252-0.102,0.531-0.005,0.784l0.494,1.285  c-0.235-0.01-0.464,0.06-0.658,0.195c-0.253,0.178-0.417,0.456-0.45,0.764L17.02,67.82l-0.563-0.56  c-0.41-0.406-1.064-0.417-1.489-0.025l-0.116,0.107c-0.049-0.158-0.134-0.307-0.252-0.43c-0.235-0.245-0.576-0.367-0.912-0.322  l-0.132,0.017l1.822-2.161c0.102-0.121,0.175-0.262,0.216-0.413l1.474-5.467c0.619-2.296,2.083-4.237,4.121-5.466l3.979-2.396  c0.355-0.214,0.557-0.614,0.516-1.027l-0.245-2.457l2.801,0.251l0.191-2.143l-4.676-0.418c-2.239-0.667-4.248-2.053-5.666-3.91  c-0.799-1.048-1.143-2.395-0.942-3.695c0.313-2.035,1.234-3.895,2.663-5.378l0.189-0.197c2.076-2.155,4.704-3.693,7.6-4.447  c1.876-0.487,3.803-0.636,5.73-0.44l3.036,0.309c1.479,0.151,2.899,0.563,4.227,1.228l1.876,0.938l2.472,3.588l-0.125,2.261  c-0.103,1.841-0.614,3.638-1.466,5.261l-4.545,2.663l-4.528,0.552l0.129,1.066l4.64-0.564c0.073-0.009,0.144-0.032,0.207-0.069  l2.776-1.627c-0.122,0.154-0.239,0.311-0.369,0.46l-0.901,1.029l-1.874,1.15l1.125,1.832l2.013-1.235  c0.092-0.057,0.175-0.126,0.246-0.208l1.01-1.152c0.653-0.747,1.218-1.563,1.708-2.42l2.185,2.366l-1.826,0.813l0.875,1.965  l3.055-1.361l6.304-0.854l3.735,1.702c0.175,0.078,0.368,0.111,0.559,0.091l2.205-0.232l-0.203,0.381  c-0.154,0.289-0.164,0.618-0.052,0.902l-0.363,0.021c-0.402,0.021-0.759,0.268-0.923,0.636c-0.069,0.157-0.1,0.326-0.092,0.492  c-0.179,0.099-0.325,0.247-0.423,0.428l-0.332-0.873c-0.101-0.267-0.304-0.481-0.562-0.599l-3.275-1.478  c-0.253-0.112-0.538-0.125-0.798-0.034l-6.47,2.264c-0.192,0.067-0.361,0.188-0.487,0.348l-2.336,2.952l1.686,1.334l2.143-2.707  l1.968-0.689l0.268,0.415l-1.313,4.444l-2.071,2.634l0.846,0.664l2.135-2.715c0.042-0.054,0.073-0.114,0.093-0.18l1.08-3.655  l0.27,0.418v3.527h2.15v-3.844c0-0.207-0.06-0.409-0.172-0.583l-1.197-1.855l1.714-0.6l2.479,1.118l1.162,3.057  c0.158,0.416,0.556,0.691,1.001,0.693c0.001,0,0.003,0,0.004,0c0.443,0,0.841-0.271,1.002-0.685l0.523-1.344l1.293,0.688  c0.453,0.241,1.008,0.13,1.334-0.264c0.325-0.394,0.328-0.962,0.009-1.359l-0.496-0.617l1.363-0.075  c0.471-0.025,0.87-0.355,0.983-0.813c0.114-0.458-0.083-0.937-0.487-1.181l-1.278-0.771l0.679-1.27  c0.188-0.352,0.166-0.777-0.057-1.107c-0.222-0.33-0.61-0.51-1.004-0.469l-3.931,0.415l-3.751-1.71  c-0.185-0.083-0.389-0.115-0.591-0.087l-6.209,0.841l-1.449-1.57c4.662-1.544,10.248-2.589,15.243-3.519l1.452-0.271  c4.164-0.694,8.385-0.693,12.637,0.011c2.471,0.206,4.788,1.36,7.03,2.477c0.944,0.471,1.91,0.951,2.894,1.365  C86.996,42.197,86.781,42.404,86.573,42.61z"/><path d="M36.131,48.965l-0.436-0.982l-1.426,0.64l-3.731,0.93l-2.76-0.612l-0.232,1.049l2.883,0.641  c0.038,0.009,0.077,0.013,0.116,0.013c0.044,0,0.087-0.005,0.13-0.016l3.942-0.991L36.131,48.965z"/><path d="M39.748,56.495l-3.879,1.031l-4.631-0.453l-0.105,1.07l4.728,0.463c0.018,0.002,0.035,0.002,0.053,0.002  c0.047,0,0.093-0.006,0.139-0.018l4.148-1.104c0.113-0.03,0.214-0.097,0.286-0.189l1.28-1.646l-0.85-0.66L39.748,56.495z"/><text x="0" y="115" fill="#000000" font-size="5px" font-weight="bold" font-family="'Helvetica Neue', Helvetica, Arial-Unicode, Arial, Sans-serif">Created by Lucas Helle</text><text x="0" y="120" fill="#000000" font-size="5px" font-weight="bold" font-family="'Helvetica Neue', Helvetica, Arial-Unicode, Arial, Sans-serif">from the Noun Project</text></svg>